<?xml version="1.0" encoding="UTF-8" standalone="no"?>
<!-- Created with Inkscape (http://www.inkscape.org/) -->

<svg
   xmlns:dc="http://purl.org/dc/elements/1.1/"
   xmlns:cc="http://creativecommons.org/ns#"
   xmlns:rdf="http://www.w3.org/1999/02/22-rdf-syntax-ns#"
   xmlns:svg="http://www.w3.org/2000/svg"
   xmlns="http://www.w3.org/2000/svg"
   xmlns:sodipodi="http://sodipodi.sourceforge.net/DTD/sodipodi-0.dtd"
   xmlns:inkscape="http://www.inkscape.org/namespaces/inkscape"
   width="150"
   height="150"
   viewBox="0 0 39.687498 39.687501"
   version="1.1"
   id="svg8"
   inkscape:version="0.92.3 (unknown)"
   sodipodi:docname="teatime.svg"
   inkscape:export-filename="/home/duke/Desktop/teatime.png"
   inkscape:export-xdpi="96"
   inkscape:export-ydpi="96">
  <title
     id="title893">Defautl Document</title>
  <defs
     id="defs2">
    <inkscape:path-effect
       effect="spiro"
       id="path-effect911"
       is_visible="true" />
    <inkscape:path-effect
       effect="spiro"
       id="path-effect907"
       is_visible="true" />
    <inkscape:path-effect
       effect="spiro"
       id="path-effect903"
       is_visible="true" />
  </defs>
  <sodipodi:namedview
     id="base"
     pagecolor="#ffffff"
     bordercolor="#666666"
     borderopacity="1.0"
     inkscape:pageopacity="0.0"
     inkscape:pageshadow="2"
     inkscape:zoom="2"
     inkscape:cx="105.35974"
     inkscape:cy="103.07277"
     inkscape:document-units="px"
     inkscape:current-layer="layer3"
     showgrid="true"
     units="px"
     width="1024px"
     inkscape:showpageshadow="false"
     showguides="true"
     inkscape:guide-bbox="true"
     inkscape:window-width="1920"
     inkscape:window-height="976"
     inkscape:window-x="0"
     inkscape:window-y="27"
     inkscape:window-maximized="1"
     inkscape:pagecheckerboard="true"
     borderlayer="false"
     objecttolerance="10000"
     inkscape:snap-global="false">
    <inkscape:grid
       type="xygrid"
       id="grid815"
       empspacing="8"
       dotted="true"
       spacingx="0.26458333"
       spacingy="0.26458333" />
    <sodipodi:guide
       position="0,135.46666"
       orientation="0,1"
       id="guide4520"
       inkscape:locked="false"
       inkscape:label=""
       inkscape:color="rgb(0,0,255)" />
    <sodipodi:guide
       position="0,0"
       orientation="1,0"
       id="guide4522"
       inkscape:locked="false"
       inkscape:label=""
       inkscape:color="rgb(0,0,255)" />
    <sodipodi:guide
       position="270.93332,0"
       orientation="0,1"
       id="guide4524"
       inkscape:locked="false"
       inkscape:label=""
       inkscape:color="rgb(0,0,255)" />
    <sodipodi:guide
       position="270.93333,135.46668"
       orientation="1,0"
       id="guide4526"
       inkscape:locked="false"
       inkscape:label=""
       inkscape:color="rgb(0,0,255)" />
    <sodipodi:guide
       position="135.46666,67.733332"
       orientation="1,0"
       id="guide4528"
       inkscape:locked="false"
       inkscape:label=""
       inkscape:color="rgb(0,0,255)" />
    <sodipodi:guide
       position="135.46666,67.733332"
       orientation="0,1"
       id="guide4530"
       inkscape:locked="false"
       inkscape:label=""
       inkscape:color="rgb(0,0,255)" />
    <sodipodi:guide
       position="67.733332,85.989585"
       orientation="1,0"
       id="guide887"
       inkscape:locked="false"
       inkscape:label=""
       inkscape:color="rgb(0,0,255)" />
    <sodipodi:guide
       position="203.2,87.047919"
       orientation="1,0"
       id="guide889"
       inkscape:locked="false"
       inkscape:label=""
       inkscape:color="rgb(0,0,255)" />
  </sodipodi:namedview>
  <metadata
     id="metadata5">
    <rdf:RDF>
      <cc:Work
         rdf:about="">
        <dc:format>image/svg+xml</dc:format>
        <dc:type
           rdf:resource="http://purl.org/dc/dcmitype/StillImage" />
        <dc:title>Defautl Document</dc:title>
        <dc:date>5th September 2018</dc:date>
        <dc:creator>
          <cc:Agent>
            <dc:title>Ali Jibran</dc:title>
          </cc:Agent>
        </dc:creator>
        <dc:rights>
          <cc:Agent>
            <dc:title>Open Source</dc:title>
          </cc:Agent>
        </dc:rights>
        <dc:publisher>
          <cc:Agent>
            <dc:title>Karacraft</dc:title>
          </cc:Agent>
        </dc:publisher>
        <dc:subject>
          <rdf:Bag>
            <rdf:li>svg</rdf:li>
            <rdf:li>default</rdf:li>
            <rdf:li>pixels</rdf:li>
          </rdf:Bag>
        </dc:subject>
        <cc:license
           rdf:resource="http://creativecommons.org/licenses/by-nc/4.0/" />
      </cc:Work>
      <cc:License
         rdf:about="http://creativecommons.org/licenses/by-nc/4.0/">
        <cc:permits
           rdf:resource="http://creativecommons.org/ns#Reproduction" />
        <cc:permits
           rdf:resource="http://creativecommons.org/ns#Distribution" />
        <cc:requires
           rdf:resource="http://creativecommons.org/ns#Notice" />
        <cc:requires
           rdf:resource="http://creativecommons.org/ns#Attribution" />
        <cc:prohibits
           rdf:resource="http://creativecommons.org/ns#CommercialUse" />
        <cc:permits
           rdf:resource="http://creativecommons.org/ns#DerivativeWorks" />
      </cc:License>
    </rdf:RDF>
  </metadata>
  <g
     inkscape:groupmode="layer"
     id="layer3"
     inkscape:label="Images"
     transform="translate(0,-95.779165)">
    <rect
       style="opacity:1;fill:#ffffff;fill-opacity:1;stroke:none;stroke-width:2.64583325;stroke-linecap:round;stroke-miterlimit:4;stroke-dasharray:none;stroke-opacity:1;paint-order:stroke fill markers"
       id="rect1093"
       width="42.730209"
       height="42.730209"
       x="-2.1166666"
       y="94.191666" />
    <g
       id="g857"
       transform="matrix(0.38091647,0,0,0.38091647,-4.758311,118.53492)"
       style="fill:#000000">
      <rect
         rx="3.96875"
         ry="3.96875"
         y="35.98333"
         x="25.123789"
         height="8.4666662"
         width="76.199997"
         id="rect829"
         style="opacity:1;fill:#000000;fill-opacity:1;stroke:none;stroke-width:1.32291663;stroke-linecap:round;stroke-miterlimit:0.1;stroke-dasharray:none;stroke-opacity:1;paint-order:stroke fill markers" />
      <path
         inkscape:connector-curvature="0"
         id="path831"
         d="m 12.491744,35.454166 a 50.799999,8.4666663 0 0 0 50.743672,8.202083 50.799999,8.4666663 0 0 0 50.720414,-8.202083 z"
         style="opacity:1;fill:#000000;fill-opacity:1;stroke:none;stroke-width:1.32291663;stroke-linecap:round;stroke-miterlimit:0.1;stroke-dasharray:none;stroke-opacity:1;paint-order:stroke fill markers" />
    </g>
    <path
       style="opacity:1;fill:#000000;fill-opacity:1;stroke:none;stroke-width:0.59741521;stroke-linecap:round;stroke-miterlimit:0.1;stroke-dasharray:none;stroke-opacity:1;paint-order:stroke fill markers"
       d="m 4.4093067,112.52252 c -0.9085618,1.9711 -1.3815808,4.102 -1.3891284,6.25787 0.00638,5.55023 3.0845618,10.67804 8.0806447,13.46118 h 16.24613 c 4.999491,-2.78099 8.081291,-7.90919 8.089502,-13.46118 -0.0038,-2.09624 -0.447653,-4.17019 -1.305076,-6.09764 -4.240889,0.46485 -9.166676,0.71193 -14.197573,0.71218 -5.581614,-0.002 -11.0165726,-0.3071 -15.5244993,-0.87241 z m 1.9690308,2.8377 c 8.5666525,0.57558 17.1333055,0.76265 25.6999585,0 v 6.75254 c -8.647716,0.97275 -17.185239,0.6232 -25.6999585,0 z"
       id="path836"
       inkscape:connector-curvature="0"
       sodipodi:nodetypes="ccccccccccccc" />
    <path
       inkscape:connector-curvature="0"
       style="opacity:1;fill:#000000;fill-opacity:1;stroke:none;stroke-width:0.38622594;stroke-linecap:round;stroke-miterlimit:0.1;stroke-dasharray:none;stroke-opacity:1;paint-order:stroke fill markers"
       d="m 34.497116,115.30983 a 5.1903835,5.7950884 0 0 0 -0.856666,0.086 v 1.07792 a 4.2400317,4.7340159 0 0 1 0.856666,-0.10295 4.2400317,4.7340159 0 0 1 4.24002,4.7341 4.2400317,4.7340159 0 0 1 -4.24002,4.7341 4.2400317,4.7340159 0 0 1 -3.218007,-1.66018 h -1.174568 a 5.1903835,5.7950884 0 0 0 4.392575,2.72117 5.1903835,5.7950884 0 0 0 5.190383,-5.79509 5.1903835,5.7950884 0 0 0 -5.190383,-5.79509 z"
       id="path846" />
    <g
       aria-label="TEA TIME"
       style="font-style:normal;font-variant:normal;font-weight:normal;font-stretch:normal;font-size:10.58333302px;line-height:1.25;font-family:Bebas;-inkscape-font-specification:Bebas;letter-spacing:0px;word-spacing:0px;fill:#000000;fill-opacity:1;stroke:none;stroke-width:0.26458332"
       id="text853"
       transform="matrix(0.38091647,0,0,0.38091647,-4.758311,118.53492)">
      <path
         inkscape:connector-curvature="0"
         d="M 42.067247,-3.4125309 H 40.25425 v -1.7047585 h 5.321733 v 1.7047585 H 43.772006 V 6.184628 h -1.704759 z"
         style="font-size:12.69999981px;fill:#000000;stroke-width:0.26458332"
         id="path886" />
      <path
         inkscape:connector-curvature="0"
         d="M 46.951516,6.184628 V -5.1263093 h 4.852698 v 1.7047585 h -3.14794 v 3.09382095 h 2.300071 V 1.3860485 h -2.300071 v 3.093821 h 3.14794 V 6.184628 Z"
         style="font-size:12.69999981px;fill:#000000;stroke-width:0.26458332"
         id="path888" />
      <path
         inkscape:connector-curvature="0"
         d="M 55.170886,3.5869008 54.755971,6.184628 H 52.979054 L 54.90029,-5.1172894 h 2.34517 L 59.139636,6.184628 H 57.353699 L 56.947804,3.5869008 Z m 0.892969,-6.1154829 -0.631392,4.4558238 h 1.262784 z"
         style="font-size:12.69999981px;fill:#000000;stroke-width:0.26458332"
         id="path890" />
      <path
         inkscape:connector-curvature="0"
         d="m 63.30006,-3.4125309 h -1.812997 v -1.7047585 h 5.321733 v 1.7047585 H 65.004818 V 6.184628 H 63.30006 Z"
         style="font-size:12.69999981px;fill:#000000;stroke-width:0.26458332"
         id="path892" />
      <path
         inkscape:connector-curvature="0"
         d="M 69.889087,6.184628 H 68.184328 V -5.1172894 h 1.704759 z"
         style="font-size:12.69999981px;fill:#000000;stroke-width:0.26458332"
         id="path894" />
      <path
         inkscape:connector-curvature="0"
         d="M 73.113696,6.184628 H 71.408938 V -5.1263093 h 2.444389 l 1.5875,8.1088777 1.524361,-8.1088777 h 2.35419 V 6.184628 H 77.61462 V -0.92304234 L 76.135358,6.184628 h -1.371023 l -1.650639,-7.08963057 z"
         style="font-size:12.69999981px;fill:#000000;stroke-width:0.26458332"
         id="path896" />
      <path
         inkscape:connector-curvature="0"
         d="M 80.834717,6.184628 V -5.1263093 h 4.852699 v 1.7047585 h -3.14794 v 3.09382095 h 2.300071 V 1.3860485 h -2.300071 v 3.093821 h 3.14794 V 6.184628 Z"
         style="font-size:12.69999981px;fill:#000000;stroke-width:0.26458332"
         id="path898" />
    </g>
    <path
       style="fill:none;stroke:#000000;stroke-width:1.00784147;stroke-linecap:butt;stroke-linejoin:miter;stroke-miterlimit:4;stroke-dasharray:none;stroke-opacity:1"
       d="m 18.117803,97.30342 c 0.523445,-0.527243 1.232008,-0.866971 1.970858,-0.944948 0.73885,-0.07798 1.502721,0.106352 2.124697,0.51271 0.621976,0.406357 1.097623,1.031845 1.323006,1.739788 0.225383,0.707942 0.198896,1.49329 -0.07367,2.18444 -0.306781,0.7779 -0.901657,1.40964 -1.553574,1.93332 -0.651918,0.52367 -1.371026,0.95817 -2.031149,1.47147 -0.660122,0.51329 -1.27273,1.12326 -1.616082,1.88572 -0.171677,0.38123 -0.272457,0.79711 -0.268809,1.2152 0.0036,0.41808 0.114235,0.83808 0.338523,1.19093 0.215708,0.33935 0.526594,0.60591 0.83879,0.85934 0.312195,0.25342 0.633901,0.50252 0.881677,0.81922 0.123889,0.15835 0.228361,0.33316 0.296543,0.5223 0.06818,0.18914 0.09937,0.39306 0.07752,0.59292 -0.02184,0.19987 -0.09816,0.39533 -0.227782,0.54902 -0.129623,0.15369 -0.313667,0.26338 -0.512714,0.29172 -0.231291,0.0329 -0.476108,-0.0487 -0.641386,-0.21379"
       id="path901"
       inkscape:connector-curvature="0"
       inkscape:path-effect="#path-effect903"
       inkscape:original-d="m 18.117803,97.30342 c 1.78173,1.163897 3.563359,2.327894 5.344887,3.49199 1.781529,1.1641 -3.420626,5.13099 -5.131091,7.69664 -1.710465,2.56565 0.902793,2.42291 1.354038,3.63452 0.451245,1.21161 -0.42749,-0.14263 -0.641386,-0.21379" />
    <path
       style="fill:none;stroke:#000000;stroke-width:1.00784147;stroke-linecap:butt;stroke-linejoin:miter;stroke-miterlimit:4;stroke-dasharray:none;stroke-opacity:1"
       d="m 15.338462,97.374685 c -1.525889,0.232734 -2.926,1.185829 -3.702049,2.520089 -0.776049,1.334256 -0.912225,3.022496 -0.360065,4.463896 0.296019,0.77275 0.770913,1.46119 1.209561,2.16287 0.438648,0.70168 0.851345,1.44146 0.99966,2.25557 0.133634,0.73352 0.04119,1.50663 -0.261624,2.18796 -0.302814,0.68133 -0.814724,1.26802 -1.44874,1.66036"
       id="path905"
       inkscape:connector-curvature="0"
       inkscape:path-effect="#path-effect907"
       inkscape:original-d="m 15.338462,97.374685 c -1.330182,2.304139 -2.707975,4.655885 -4.062114,6.983985 -1.3541375,2.3281 1.472915,2.94553 2.209221,4.41844 0.736306,1.47291 -1.140142,2.56544 -1.710364,3.84832" />
    <path
       style="fill:none;stroke:#000000;stroke-width:1.00784147;stroke-linecap:butt;stroke-linejoin:miter;stroke-miterlimit:4;stroke-dasharray:none;stroke-opacity:1"
       d="m 26.384561,98.016072 c 1.03738,0.405796 1.907795,1.221834 2.379574,2.230918 0.47178,1.00909 0.539806,2.20027 0.185972,3.2565 -0.426013,1.2717 -1.39848,2.26928 -2.168256,3.36752 -0.384889,0.54912 -0.726147,1.1381 -0.914464,1.78169 -0.188316,0.64359 -0.215301,1.34873 0.01832,1.9773 0.168935,0.45453 0.472122,0.85822 0.86155,1.14715 0.389429,0.28893 0.863685,0.46205 1.34767,0.49195"
       id="path909"
       inkscape:connector-curvature="0"
       inkscape:path-effect="#path-effect911"
       inkscape:original-d="m 26.384561,98.016072 c 0.879039,1.805283 1.710465,3.658178 2.565546,5.487418 0.855082,1.82924 -2.042834,4.75091 -3.064401,7.12651 -1.021569,2.37561 1.472914,1.09264 2.20922,1.6391" />
  </g>
</svg>
